<?xml version="1.0" encoding="UTF-8" standalone="no"?>
<svg
   xmlns:dc="http://purl.org/dc/elements/1.1/"
   xmlns:cc="http://creativecommons.org/ns#"
   xmlns:rdf="http://www.w3.org/1999/02/22-rdf-syntax-ns#"
   xmlns:svg="http://www.w3.org/2000/svg"
   xmlns="http://www.w3.org/2000/svg"
   xmlns:sodipodi="http://sodipodi.sourceforge.net/DTD/sodipodi-0.dtd"
   xmlns:inkscape="http://www.inkscape.org/namespaces/inkscape"
   version="1.1"
   height="436.8573681857125"
   width="433.22003173828125"
   viewBox="0 0 433.22003173828125 436.8573681857125"
   id="svg34"
   sodipodi:docname="logo_colored.svg"
   inkscape:version="0.92.2 (5c3e80d, 2017-08-06)">
  <metadata
     id="metadata38">
    <rdf:RDF>
      <cc:Work
         rdf:about="">
        <dc:format>image/svg+xml</dc:format>
        <dc:type
           rdf:resource="http://purl.org/dc/dcmitype/StillImage" />
        <dc:title></dc:title>
      </cc:Work>
    </rdf:RDF>
  </metadata>
  <sodipodi:namedview
     pagecolor="#ffffff"
     bordercolor="#666666"
     borderopacity="1"
     objecttolerance="10"
     gridtolerance="10"
     guidetolerance="10"
     inkscape:pageopacity="0"
     inkscape:pageshadow="2"
     inkscape:window-width="1366"
     inkscape:window-height="713"
     id="namedview36"
     showgrid="false"
     inkscape:pagecheckerboard="false"
     showborder="true"
     inkscape:zoom="0.5402221"
     inkscape:cx="-113.80964"
     inkscape:cy="218.42868"
     inkscape:window-x="0"
     inkscape:window-y="27"
     inkscape:window-maximized="1"
     inkscape:current-layer="layer1" />
  <g
     inkscape:groupmode="layer"
     id="layer1"
     inkscape:label="Background">
    <rect
       style="fill:#224a25;fill-opacity:1;stroke:#000000;stroke-width:0.64999998;stroke-miterlimit:4;stroke-dasharray:none;stroke-opacity:0"
       id="rect41"
       width="436.85736"
       height="442.41064"
       x="0"
       y="-1.8510906" />
  </g>
  <g
     id="SvgjsG1018"
     rel="mainfill"
     name="main_text"
     fill="url(#SvgjsLinearGradient1015)"
     transform="translate(74.29999995231628,184.51467309126934)">
    <path
       d="M2.8 37.8 l0 -5.32 c0 -2.17 -0.84 -5.11 -2.1 -6.16 l28.7 0 c-1.26 1.05 -2.1 3.99 -2.1 6.16 l0 5.32 c-1.54 -1.82 -6.02 -2.38 -8.54 -2.03 c0.91 -0.56 2.24 -1.33 2.31 -3.29 l-2.87 0 l0 6.16 l2.1 0 c-1.26 1.05 -2.03 4.06 -2.1 6.23 l0 18.97 c0 1.89 0.63 4.9 2.17 6.16 l-5.25 2.1 l-5.25 -2.1 c1.26 -1.05 2.1 -3.99 2.1 -6.16 l0 -18.97 c-0.07 -2.17 -0.84 -5.18 -2.1 -6.23 l2.1 0 l0 -6.16 l-2.94 0 c0.07 1.96 1.4 2.73 2.31 3.29 c-2.52 -0.35 -7 0.21 -8.54 2.03 z M36.19 63.84 l0 -18.97 c0 -2.17 -0.84 -5.18 -2.1 -6.23 l2.1 0 l0 -6.16 c-0.07 -2.17 -0.84 -5.11 -2.1 -6.16 l24.64 0 c-0.63 0.49 -1.26 1.47 -1.47 2.66 c-1.19 5.81 -2.17 11.62 -3.22 17.5 l4.2 31.29 c0.28 2.38 0.91 5.11 2.31 6.93 c-3.85 0.63 -6.37 -4.06 -10.57 -4.27 c0.91 -0.42 2.03 -2.03 1.82 -3.78 l-3.29 -24.5 l-6.09 0 l0 11.69 c0 2.17 0.84 5.11 2.1 6.16 l-5.18 2.1 l-5.25 -2.1 c1.26 -1.05 2.1 -3.99 2.1 -6.16 z M42.42 45.92 l5.6 0 l2.73 -13.44 l-8.33 0 l0 6.16 l2.1 0 c-1.26 1.05 -2.1 4.06 -2.1 6.23 l0 1.05 z M65.73 63.84 l0 -18.97 c0 -2.17 -0.84 -5.18 -2.1 -6.23 l2.1 0 l0 -6.16 c0 -2.17 -0.84 -5.11 -2.1 -6.16 l24.64 0 c-1.26 1.05 -2.1 3.99 -2.1 6.16 l0 5.32 c-1.54 -1.82 -6.02 -2.38 -8.61 -2.03 c0.98 -0.56 2.31 -1.33 2.38 -3.29 l-8.05 0 l0 6.16 l11.9 0 c-2.1 1.75 -2.1 7.07 -1.61 9.59 c-1.54 -2.52 -3.08 -3.36 -4.76 -3.36 l-5.53 0 l0 18.34 l-1.26 0.49 l5.32 2.17 l5.32 -2.17 l-1.33 -0.49 l0 -7.42 c0 -1.96 -1.4 -2.73 -2.38 -3.29 c2.52 0.35 7 -0.14 8.61 -2.03 l0 13.37 c0 2.17 0.84 5.11 2.1 6.16 l-7 0 l-5.32 2.17 l-5.32 -2.17 l-7 0 c1.26 -1.05 2.1 -3.99 2.1 -6.16 z M95.06 63.84 l0 -18.97 c0 -2.17 -0.84 -5.18 -2.1 -6.23 l2.1 0 l0 -6.16 c-0.07 -2.17 -0.84 -5.11 -2.1 -6.16 l10.36 0 c-0.35 0.28 -0.7 0.77 -0.98 1.4 l6.86 3.92 c-0.21 -2.03 -0.91 -4.41 -2.03 -5.32 l10.43 0 c-1.33 1.05 -2.1 3.99 -2.17 6.16 l0 6.16 l2.17 0 c-1.33 1.05 -2.17 4.06 -2.17 6.23 l0 18.97 c0.07 2.17 0.84 5.11 2.17 6.16 l-5.25 2.17 l-5.18 -2.17 c1.26 -1.05 2.1 -3.99 2.1 -6.16 c0.07 -6.37 0 -12.67 0 -18.97 c0 -2.17 -0.84 -5.18 -2.1 -6.23 l2.1 0 l-8.05 -4.62 l0 4.62 l2.1 0 c-1.26 1.05 -2.1 4.06 -2.1 6.23 l0 18.97 c0 2.17 0.84 5.11 2.1 6.16 l-5.18 2.17 l-5.18 -2.17 c1.26 -1.05 2.1 -3.99 2.1 -6.16 z M124.39 37.8 l0 -5.32 c0 -2.17 -0.84 -5.11 -2.1 -6.16 l28.7 0 c-1.26 1.05 -2.1 3.99 -2.1 6.16 l0 5.32 c-1.54 -1.82 -6.02 -2.38 -8.54 -2.03 c0.91 -0.56 2.24 -1.33 2.31 -3.29 l-2.87 0 l0 6.16 l2.1 0 c-1.26 1.05 -2.03 4.06 -2.1 6.23 l0 18.97 c0 1.89 0.63 4.9 2.17 6.16 l-5.25 2.1 l-5.25 -2.1 c1.26 -1.05 2.1 -3.99 2.1 -6.16 l0 -18.97 c-0.07 -2.17 -0.84 -5.18 -2.1 -6.23 l2.1 0 l0 -6.16 l-2.94 0 c0.07 1.96 1.4 2.73 2.31 3.29 c-2.52 -0.35 -7 0.21 -8.54 2.03 z M178.71 44.870000000000005 l0 18.97 c0 2.17 0.84 5.11 2.1 6.16 l-5.25 2.17 l-5.18 -2.17 c1.26 -1.05 2.1 -3.99 2.1 -6.16 l0 -18.97 l-8.05 0 l0 30.94 c0 0.77 0.77 4.2 1.82 4.62 c-4.27 0.21 -6.72 4.9 -10.57 4.27 c1.82 -2.45 2.59 -5.88 2.59 -8.89 l0 -30.94 c0 -2.17 -0.84 -5.18 -2.1 -6.23 l2.1 0 l0 -6.16 c-0.07 -2.17 -0.84 -5.11 -2.1 -6.16 l10.36 0 c-1.26 1.05 -2.03 3.99 -2.1 6.16 l0 6.16 l8.05 0 l0 -6.16 c-0.07 -2.17 -0.84 -5.11 -2.1 -6.16 l10.43 0 c-1.26 1.05 -2.03 3.99 -2.1 6.16 l0 6.16 l2.1 0 c-1.26 1.05 -2.1 4.06 -2.1 6.23 z M187.60000000000002 63.84 l0 -18.97 c0 -2.17 -0.84 -5.18 -2.1 -6.23 l2.1 0 l0 -6.16 c0 -2.17 -0.84 -5.11 -2.1 -6.16 l24.64 0 c-1.26 1.05 -2.1 3.99 -2.1 6.16 l0 5.32 c-1.54 -1.82 -6.02 -2.38 -8.61 -2.03 c0.98 -0.56 2.31 -1.33 2.38 -3.29 l-8.05 0 l0 6.16 l11.9 0 c-2.1 1.75 -2.1 7.07 -1.61 9.59 c-1.54 -2.52 -3.08 -3.36 -4.76 -3.36 l-5.53 0 l0 18.34 l-1.26 0.49 l5.32 2.17 l5.32 -2.17 l-1.33 -0.49 l0 -7.42 c0 -1.96 -1.4 -2.73 -2.38 -3.29 c2.52 0.35 7 -0.14 8.61 -2.03 l0 13.37 c0 2.17 0.84 5.11 2.1 6.16 l-7 0 l-5.32 2.17 l-5.32 -2.17 l-7 0 c1.26 -1.05 2.1 -3.99 2.1 -6.16 z M216.93000000000004 63.84 l0 -13.37 c1.61 1.89 6.09 2.38 8.54 2.03 c-0.91 0.56 -2.24 1.33 -2.31 3.29 l0 7.42 l-1.33 0.49 l5.32 2.17 l5.32 -2.17 l-1.33 -0.49 l0 -18.34 l-14.14 0 c-0.07 -2.17 -0.84 -5.18 -2.1 -6.23 l2.03 0 l0 -6.16 c0 -2.17 -0.84 -5.11 -2.1 -6.16 l24.64 0 c-1.26 1.05 -2.1 3.99 -2.1 6.16 l0 5.32 c-1.54 -1.82 -5.95 -2.38 -8.54 -2.03 c0.91 -0.56 2.24 -1.33 2.31 -3.29 l-7.98 0 l0 6.16 l16.31 0 c-1.26 1.05 -2.1 4.06 -2.1 6.23 l0 18.97 c0 2.17 0.84 5.11 2.1 6.16 l-7 0 l-5.32 2.1 l-5.32 -2.1 l-7 0 c1.26 -1.05 2.1 -3.99 2.1 -6.16 z M252.42000000000004 32.48 l0 6.16 l2.17 0 c-1.33 1.05 -2.17 4.06 -2.17 6.23 l0 18.97 c0.07 2.17 0.84 5.11 2.17 6.16 l-5.25 2.17 l-5.18 -2.17 c1.26 -1.05 2.1 -3.99 2.1 -6.16 c0.07 -6.37 0 -12.67 0 -18.97 c0 -2.17 -0.84 -5.18 -2.1 -6.23 l2.1 0 l0 -6.16 c0 -2.17 -0.84 -5.11 -2.1 -6.16 l10.43 0 c-1.33 1.05 -2.17 3.99 -2.17 6.16 z M261.38000000000005 63.84 l0 -13.37 c1.61 1.89 6.09 2.38 8.54 2.03 c-0.91 0.56 -2.24 1.33 -2.31 3.29 l0 7.42 l-1.33 0.49 l5.32 2.17 l5.32 -2.17 l-1.33 -0.49 l0 -18.34 l-14.14 0 c-0.07 -2.17 -0.84 -5.18 -2.1 -6.23 l2.03 0 l0 -6.16 c0 -2.17 -0.84 -5.11 -2.1 -6.16 l24.64 0 c-1.26 1.05 -2.1 3.99 -2.1 6.16 l0 5.32 c-1.54 -1.82 -5.95 -2.38 -8.54 -2.03 c0.91 -0.56 2.24 -1.33 2.31 -3.29 l-7.98 0 l0 6.16 l16.31 0 c-1.26 1.05 -2.1 4.06 -2.1 6.23 l0 18.97 c0 2.17 0.84 5.11 2.1 6.16 l-7 0 l-5.32 2.1 l-5.32 -2.1 l-7 0 c1.26 -1.05 2.1 -3.99 2.1 -6.16 z"
       id="path2" />
  </g>
  <g
     id="SvgjsG1019"
     rel="mainfill"
     name="slogan_text"
     fill="url(#SvgjsLinearGradient1015)"
     transform="translate(144.80213087797165,268.8320349229344)">
    <path
       d="M11.135 10.441 c0.15254 0 0.27102 0.10169 0.27102 0.27119 l0 1.3051 c0 0.15254 -0.11864 0.27119 -0.27119 0.27119 l-4.0846 0 l0 11.424 c0 0.18644 -0.10169 0.28797 -0.27119 0.28797 l-0.98305 0 c-0.44068 0 -0.66102 -0.28797 -0.66102 -0.6778 l0 -11.034 l-4.0846 0 c-0.15254 0 -0.28814 -0.10169 -0.28814 -0.27119 l0 -1.288 c0 -0.16966 0.11864 -0.28831 0.28814 -0.28831 l10.085 0 z M21.474591525423726 23.64424 c0.033732 0.18644 -0.016949 0.35593 -0.16949 0.35593 l-1.1017 0 c-0.44068 0 -0.66102 -0.28797 -0.66102 -0.6778 l0 -4.4068 c0 -1.1186 -0.77966 -1.7627 -1.8985 -1.7627 c-0.98305 0 -1.7797 0.45763 -2.4576 1.1186 l0 5.4578 c0 0.050847 -0.016784 0.10169 -0.033732 0.13559 c-0.033898 0.050847 -0.067797 0.084746 -0.10169 0.10169 c-0.050847 0.016949 -0.084746 0.033732 -0.13559 0.033732 l-1.322 0 c-0.15254 0 -0.25424 -0.11864 -0.25424 -0.27102 l0 -7.8476 l0 -0.050847 l0 -3.9492 c0 -0.57627 -0.084746 -0.83051 -0.13559 -1.0847 c-0.033732 -0.18661 0.017115 -0.3561 0.18661 -0.3561 l1.1525 0 c0.38983 0 0.64407 0.25424 0.64407 0.61017 l0 5.4576 c0.66102 -0.50864 1.5424 -1.0171 2.7119 -1.0171 c1.7288 0 3.4744 1.1019 3.4744 3.2205 l0 3.7627 c0.016949 0.47458 0.050847 0.83051 0.10169 1.1695 z M30.22033220338983 20.4915 c0.61 0 1.0336 -0.30508 1.0336 -1.0169 c0 -2.0847 -1.6102 -3.9831 -4.0847 -3.9831 c-2.3559 0 -4.2034 1.8644 -4.2034 4.3051 c0 2.5422 1.9322 4.288 4.3051 4.288 c1.5085 0 2.6949 -0.61017 3.4237 -1.5932 c0.10186 -0.13559 0.067963 -0.23729 -0.033568 -0.37288 l-0.32203 -0.42373 c-0.13559 -0.16933 -0.27119 -0.15254 -0.44085 -0.050847 c-0.5422 0.44068 -1.4405 0.81373 -2.4236 0.81373 c-1.3898 0 -2.3729 -0.84746 -2.5593 -1.9661 l5.3051 0 z M24.91513220338983 19.0508 c0.067797 -0.81356 0.83051 -1.8644 2.2203 -1.8644 c1.4068 0 2.1356 1.0678 2.1864 1.8644 l-4.4068 0 z M32.69474593220339 22.7798 l0.5761 -0.91508 c0.11864 -0.18661 0.22034 -0.23746 0.38983 -0.15271 c0.016949 0.033898 1.0508 0.64407 2.1864 0.64407 c0.98305 0 1.322 -0.38983 1.322 -0.77966 c0 -0.57627 -0.62712 -0.77949 -1.7627 -1.0676 c-1.6102 -0.42373 -2.678 -1.2542 -2.678 -2.5424 c0 -1.2712 1.0847 -2.4576 3.1186 -2.4576 c1.2373 0 2.0847 0.42373 2.7627 0.81356 c0.16949 0.10169 0.25424 0.25424 0.15254 0.38983 l-0.62712 0.9661 c-0.084746 0.13559 -0.22034 0.18644 -0.37288 0.13559 c-0.44068 -0.22017 -1.1525 -0.54237 -1.9153 -0.54237 c-0.94915 0 -1.2034 0.47458 -1.2034 0.76271 c0 0.49153 0.71186 0.72881 1.5763 0.96593 c1.5086 0.40678 3.0171 1.1356 3.0171 2.6102 c0 1.4237 -1.3558 2.5083 -3.3898 2.5083 c-1.3898 0 -2.6441 -0.6778 -3.0678 -1.0168 c-0.11864 -0.067797 -0.15254 -0.23729 -0.084746 -0.32203 z M42.2032 12.492 c-0.55915 0 -1.0168 -0.44068 -1.0168 -1.0169 c0 -0.55932 0.45763 -1.0169 1.0168 -1.0169 c0.55932 0 1.0169 0.45763 1.0169 1.0169 c0 0.57627 -0.45763 1.0169 -1.0169 1.0169 z M42.8642 15.6102 l-1.3051 0 c-0.16949 0 -0.27119 0.11881 -0.27119 0.27119 l0 7.4407 c0 0.38983 0.23729 0.6778 0.64407 0.6778 l0.94915 0 c0.15254 0 0.25424 -0.10153 0.25424 -0.28797 l0 -7.8305 c0 -0.15238 -0.11864 -0.27119 -0.27119 -0.27119 z M45.220169661016946 22.7798 l0.5761 -0.91508 c0.11864 -0.18661 0.22034 -0.23746 0.38983 -0.15271 c0.016949 0.033898 1.0508 0.64407 2.1864 0.64407 c0.98305 0 1.322 -0.38983 1.322 -0.77966 c0 -0.57627 -0.62712 -0.77949 -1.7627 -1.0676 c-1.6102 -0.42373 -2.678 -1.2542 -2.678 -2.5424 c0 -1.2712 1.0847 -2.4576 3.1186 -2.4576 c1.2373 0 2.0847 0.42373 2.7627 0.81356 c0.16949 0.10169 0.25424 0.25424 0.15254 0.38983 l-0.62712 0.9661 c-0.084746 0.13559 -0.22034 0.18644 -0.37288 0.13559 c-0.44068 -0.22017 -1.1525 -0.54237 -1.9153 -0.54237 c-0.94915 0 -1.2034 0.47458 -1.2034 0.76271 c0 0.49153 0.71186 0.72881 1.5763 0.96593 c1.5086 0.40678 3.0171 1.1356 3.0171 2.6102 c0 1.4237 -1.3558 2.5083 -3.3898 2.5083 c-1.3898 0 -2.6441 -0.6778 -3.0678 -1.0168 c-0.11864 -0.067797 -0.15254 -0.23729 -0.084746 -0.32203 z  M72.6104406779661 23.64424 c0.050847 0.18644 -0.016784 0.3561 -0.16916 0.3561 l-1.1017 0 c-0.42373 0 -0.66102 -0.28797 -0.66102 -0.6778 l0 -4.4237 c0 -1.1017 -0.77966 -1.7458 -1.8983 -1.7458 c-0.9661 0 -1.7797 0.55932 -2.4746 1.2542 c0.016784 0.10169 0.016784 0.20339 0.016784 0.3222 l0 3.7456 c0.016949 0.47458 0.050847 0.83051 0.10169 1.1695 c0.033898 0.18644 -0.016949 0.35576 -0.16949 0.35576 l-1.1017 0 c-0.44068 0 -0.66102 -0.28797 -0.66102 -0.6778 l0 -4.4237 c0 -1.1017 -0.77966 -1.7458 -1.8985 -1.7458 c-0.96593 0 -1.7795 0.54237 -2.4575 1.2373 l0 5.339 c0 0.15238 -0.11864 0.27102 -0.27119 0.27102 l-1.322 0 c-0.15254 0 -0.25424 -0.11864 -0.25424 -0.27102 l0 -7.8476 c0 -0.15238 0.10169 -0.27119 0.25424 -0.27119 l0.91525 0 c0.40678 0 0.66102 0.42373 0.67797 0.72881 l0 0.16949 c0.66102 -0.50864 1.5424 -1 2.6949 -1 c1.1695 0 2.339 0.49136 2.9831 1.4405 c0.67797 -0.62712 1.7288 -1.4407 3.2203 -1.4407 c1.7458 0 3.4914 1.1017 3.4914 3.2205 l0 3.7456 c0 0.47458 0.050847 0.83051 0.084746 1.1695 z M81.71167627118643 23.62712 c-0.22034 -1.661 -0.2368 -3.2032 -0.16916 -4.8302 c0.084746 -2 -1.0169 -3.2881 -3.0847 -3.2881 c-1.3559 0 -2.7627 0.40678 -3.5932 0.86441 c-0.15254 0.084746 -0.25424 0.23712 -0.18644 0.38966 l0.42373 0.98305 c0.067797 0.16949 0.18644 0.22034 0.40678 0.11864 c1.0847 -0.49153 1.9661 -0.72881 2.8305 -0.72881 c0.91525 0 1.4576 0.35593 1.4237 1.322 c-3.1356 0.5422 -5.5254 1.1015 -5.5254 3.3049 c0 1.4746 1.0678 2.3219 2.7966 2.3219 c1.4408 0 2.1864 -0.44051 2.8983 -0.98288 c0.08458 0.50847 0.23712 0.89831 0.5761 0.89831 l1.0169 0 c0.15238 0 0.20322 -0.18644 0.18627 -0.37288 z M77.35607627118644 22.627299999999998 c-0.69492 0 -1.2373 -0.23729 -1.2373 -0.88136 c0 -1.0339 1.8981 -1.3729 3.6102 -1.7288 c-0.016949 0.55932 -0.016949 1.3051 0 1.7966 c-0.55932 0.42373 -1.5085 0.81356 -2.3729 0.81356 z M90.83046779661017 10.441 c0.38983 0 0.64424 0.25458 0.64424 0.61051 l0 12.678 c0 0.15238 -0.11864 0.27102 -0.25424 0.27102 l-0.69492 0 c-0.33898 0 -0.79661 -0.22017 -0.88119 -0.62695 c-0.59356 0.42373 -1.3902 0.74542 -2.3393 0.74542 c-2.3898 0 -3.9831 -1.932 -3.9831 -4.4066 c0 -2.5424 1.9492 -4.1695 3.9322 -4.1695 c1.0508 0 1.7964 0.3222 2.39 0.67797 l0 -4.322 c0 -0.52542 -0.10186 -0.79661 -0.15271 -1.1017 c-0.033898 -0.18661 0.033898 -0.3561 0.18644 -0.3561 l1.1525 0 z M85.13576779661015 19.7124 c0 1.678 1.0847 2.6949 2.4746 2.6949 c0.83051 0 1.4915 -0.27119 2.0339 -0.57627 l0 -3.8814 c-0.62712 -0.40678 -1.322 -0.69492 -2.1017 -0.69492 c-1.0678 0 -2.4068 0.72881 -2.4068 2.4576 z M100.3559254237288 20.4915 c0.61 0 1.0336 -0.30508 1.0336 -1.0169 c0 -2.0847 -1.6102 -3.9831 -4.0847 -3.9831 c-2.3559 0 -4.2034 1.8644 -4.2034 4.3051 c0 2.5422 1.9322 4.288 4.3051 4.288 c1.5085 0 2.6949 -0.61017 3.4237 -1.5932 c0.10186 -0.13559 0.067963 -0.23729 -0.033568 -0.37288 l-0.32203 -0.42373 c-0.13559 -0.16933 -0.27119 -0.15254 -0.44085 -0.050847 c-0.5422 0.44068 -1.4405 0.81373 -2.4236 0.81373 c-1.3898 0 -2.3729 -0.84746 -2.5593 -1.9661 l5.3051 0 z M95.0507254237288 19.0508 c0.067797 -0.81356 0.83051 -1.8644 2.2203 -1.8644 c1.4068 0 2.1356 1.0678 2.1864 1.8644 l-4.4068 0 z  M114.54236610169491 20.4915 c0.61 0 1.0336 -0.30508 1.0336 -1.0169 c0 -2.0847 -1.6102 -3.9831 -4.0847 -3.9831 c-2.3559 0 -4.2034 1.8644 -4.2034 4.3051 c0 2.5422 1.9322 4.288 4.3051 4.288 c1.5085 0 2.6949 -0.61017 3.4237 -1.5932 c0.10186 -0.13559 0.067963 -0.23729 -0.033568 -0.37288 l-0.32203 -0.42373 c-0.13559 -0.16933 -0.27119 -0.15254 -0.44085 -0.050847 c-0.5422 0.44068 -1.4405 0.81373 -2.4236 0.81373 c-1.3898 0 -2.3729 -0.84746 -2.5593 -1.9661 l5.3051 0 z M109.23716610169491 19.0508 c0.067797 -0.81356 0.83051 -1.8644 2.2203 -1.8644 c1.4068 0 2.1356 1.0678 2.1864 1.8644 l-4.4068 0 z M124.44048983050847 23.62712 c-0.22034 -1.661 -0.2368 -3.2032 -0.16916 -4.8302 c0.084746 -2 -1.0169 -3.2881 -3.0847 -3.2881 c-1.3559 0 -2.7627 0.40678 -3.5932 0.86441 c-0.15254 0.084746 -0.25424 0.23712 -0.18644 0.38966 l0.42373 0.98305 c0.067797 0.16949 0.18644 0.22034 0.40678 0.11864 c1.0847 -0.49153 1.9661 -0.72881 2.8305 -0.72881 c0.91525 0 1.4576 0.35593 1.4237 1.322 c-3.1356 0.5422 -5.5254 1.1015 -5.5254 3.3049 c0 1.4746 1.0678 2.3219 2.7966 2.3219 c1.4408 0 2.1864 -0.44051 2.8983 -0.98288 c0.08458 0.50847 0.23712 0.89831 0.5761 0.89831 l1.0169 0 c0.15238 0 0.20322 -0.18644 0.18627 -0.37288 z M120.08488983050847 22.627299999999998 c-0.69492 0 -1.2373 -0.23729 -1.2373 -0.88136 c0 -1.0339 1.8981 -1.3729 3.6102 -1.7288 c-0.016949 0.55932 -0.016949 1.3051 0 1.7966 c-0.55932 0.42373 -1.5085 0.81356 -2.3729 0.81356 z M126.18627135593219 22.7798 l0.5761 -0.91508 c0.11864 -0.18661 0.22034 -0.23746 0.38983 -0.15271 c0.016949 0.033898 1.0508 0.64407 2.1864 0.64407 c0.98305 0 1.322 -0.38983 1.322 -0.77966 c0 -0.57627 -0.62712 -0.77949 -1.7627 -1.0676 c-1.6102 -0.42373 -2.678 -1.2542 -2.678 -2.5424 c0 -1.2712 1.0847 -2.4576 3.1186 -2.4576 c1.2373 0 2.0847 0.42373 2.7627 0.81356 c0.16949 0.10169 0.25424 0.25424 0.15254 0.38983 l-0.62712 0.9661 c-0.084746 0.13559 -0.22034 0.18644 -0.37288 0.13559 c-0.44068 -0.22017 -1.1525 -0.54237 -1.9153 -0.54237 c-0.94915 0 -1.2034 0.47458 -1.2034 0.76271 c0 0.49153 0.71186 0.72881 1.5763 0.96593 c1.5086 0.40678 3.0171 1.1356 3.0171 2.6102 c0 1.4237 -1.3558 2.5083 -3.3898 2.5083 c-1.3898 0 -2.6441 -0.6778 -3.0678 -1.0168 c-0.11864 -0.067797 -0.15254 -0.23729 -0.084746 -0.32203 z M142.6101254237288 15.6102 c0.20339 0 0.30525 0.13543 0.20356 0.32203 l-3.3559 6.8983 c-1.678 3.4914 -3.1525 5.5083 -3.9492 6.288 c-0.15254 0.13559 -0.33898 0.067797 -0.50847 -0.10169 l-0.72881 -0.72881 c-0.18644 -0.16949 -0.15254 -0.33898 0.016949 -0.54237 c1.0339 -1.1695 2.3729 -3.1017 3.2373 -5.0507 l-3.5254 -6.7797 c-0.084746 -0.16949 0 -0.30508 0.18644 -0.30508 l1.4915 0 c0.15238 0 0.23712 0.067797 0.30492 0.18661 l2.4915 5.0846 l2.3729 -5.0678 c0.067797 -0.13559 0.16949 -0.20339 0.32203 -0.20339 l1.4407 0 z"
       id="path5" />
  </g>
  <defs
     id="SvgjsDefs1014">
    <linearGradient
       id="SvgjsLinearGradient1015">
      <stop
         id="SvgjsStop1016"
         stop-color="#b88746"
         offset="0" />
      <stop
         id="SvgjsStop1017"
         stop-color="#fdf5a6"
         offset="1" />
    </linearGradient>
  </defs>
  <g
     id="SvgjsG1020"
     rel="mainfill"
     name="symbol"
     fill="url(#SvgjsLinearGradient1015)"
     transform="translate(182.51717196313757,133.2413193334007) scale(1.0654006576557833)">
    <g
       id="g18">
      <path
         d="M40.745,39.58c-2.751,1.344-5.685,2.025-8.721,2.025c-3.047,0-6.019-0.676-8.835-2.01l-0.022-0.01l-11.258-5.42v4.948   c0,7.157,8.837,12.781,20.084,12.781c11.248,0,20.06-5.624,20.06-12.781v-4.968L40.745,39.58z"
         id="path12" />
      <path
         d="M60.154,17.009L39.109,6.893C36.88,5.798,34.434,5.25,32.024,5.25c-2.446,0-4.893,0.548-7.193,1.643L3.942,17.009H3.906   c-4.016,2.008-4.174,7.778-0.096,9.786l21.009,10.115c2.312,1.096,4.759,1.644,7.205,1.644c2.446,0,4.821-0.548,7.061-1.644   l12.936-6.217l-17.637-6.045c-0.731,0.159-1.536,0.247-2.384,0.247c-3.306,0-5.986-1.34-5.986-2.992   c0-1.653,2.68-2.993,5.986-2.993c3.11,0,5.666,1.186,5.957,2.704l18.813,6.45c0.135,0.046,0.266,0.099,0.394,0.157l2.966-1.425   C64.172,24.787,64.208,19.017,60.154,17.009z"
         id="path14" />
      <path
         d="M58.317,46.646V31.585c0-0.38-0.05-0.751-0.141-1.108l-3.889,1.869v14.3c-0.781,0.615-1.253,1.563-1.253,2.57v7.521   c0,1.11,0.904,2.014,2.014,2.014h2.507c1.111,0,2.014-0.904,2.014-2.014v-7.521C59.57,48.209,59.1,47.261,58.317,46.646z"
         id="path16" />
    </g>
  </g>
  <g
     id="SvgjsG1021"
     transform="translate(0,-0.8089951383248047) scale(4.04497563134919)"
     rel="mainfill"
     name="outline_container"
     fill="url(#SvgjsLinearGradient1015)">
    <g
       fill=""
       id="g31">
      <path
         d="M28 9.4zM51.7 1.6zM42.2 3.2zM27.1 10.3zM27.8 9.8l-.6.4h.1l.5-.2c.2-.1.2.1.4 0h.2l.3-.2h.1c.1 0 .1.1-.1.1l-.3.2h.1c.3 0 .4.2.2.5s0 .1.1.1l.4-.2c.1-.1.2-.3.5-.3l1.1-.5.4-.3.6-.2.5-.2.2-.2h-.4l.7-.4c.3-.1.4-.1.4 0s.1.1.2.1h.3l.3-.3h1.3l.5-.2 1.2-.3 1.4-.5 3.2-.9 2.1-.4 1.5-.2 1.8-.8 1.7-.2h1.2l1.6-.2.3-.5h.6l.3.3h1.5a2.1 2.1 0 0 1 1.2 0h1.8c.1.3.5.4 1 .4l1.7.3 2 .3c.7.1 1.3 0 2 .3h.8a13.3 13.3 0 0 0 2.2.7l1 .2 1 .4h.4l1.7.6 1.3.4.6.2 2.4 1.3.6.3 1.2.6 1.4.8 1.8 1.1.6.4a7.4 7.4 0 0 1 1.5 1l2 1.4a2.7 2.7 0 0 1 1 .8 1.6 1.6 0 0 0 .6.5l.4.4a2.4 2.4 0 0 0 .9.9 1.7 1.7 0 0 1 .7.6l.6.5.5.4.6.7a18.3 18.3 0 0 0 1.5 1.8l.3.3a1.8 1.8 0 0 1 .7.6c.5.7 1 1.3 1.4 2a11.3 11.3 0 0 0 1.3 1.8l.4.6a11.8 11.8 0 0 0 1.4 2.2l.2.4 1.3 2.6 1.1 2.2c.4.7.6 1.5.9 2.3s.6 1.7 1 2.5l.2.5c.2.7.3 1.4.6 2.1v.4a13.9 13.9 0 0 0 .4 1.9c.4 1.9.7 3.7 1 5.6a4.7 4.7 0 0 1 .1.8c0 .4-.3.3-.4.4a1.4 1.4 0 0 0-.2 1.1.6.6 0 0 0 .2.4.8.8 0 0 0 .7.2c.1 0 .2.1.2.3l.3 1.1.2.3a.5.5 0 0 0 .7-.2.6.6 0 0 0 .1-.4v-1.1c0-.4 0-.5.3-.6l.2-.2v-.4c0-.1.1-.2.2 0l.2.4c.1.1.2 0 .2-.2a3.8 3.8 0 0 0 0-.6v-1.6c0-.4-.1-.9-.1-1.3a10.5 10.5 0 0 0-.2-1.5c-.1-.7-.2-1.5-.3-2.2a6.4 6.4 0 0 0-.4-1.6 4 4 0 0 1-.2-.8c0-.5-.3-1-.4-1.6a15.8 15.8 0 0 0-.3-1.6c-.1-.5-.3-1-.5-1.6a3.3 3.3 0 0 0-.6-1.1l-.3-.2c-.3 0-.6-.2-.9-.5s0-.8 0-1.1.1-.2.1-.4a2.6 2.6 0 0 0-.8-1.9h-.2l-.3-.2-.5-1.3a1.9 1.9 0 0 1-.2-.8 1.5 1.5 0 0 0-.1-.5l-.4-.6a1 1 0 0 1-.2-.5 2.2 2.2 0 0 0-.4-1.2L98 24.5a.9.9 0 0 0-.7-.5v-.2l-.2-.5-.3-.6-.3-.3c-.1-.1-.3-.2-.3-.1v.3H96l-.2-.2a3.7 3.7 0 0 0-.5-1.2l-.5-.9-.5-.8a.6.6 0 0 0-.4-.3h-.2a11.2 11.2 0 0 0-1.1-1.5l-.2-.4a1.8 1.8 0 0 0-.7-.7 1.4 1.4 0 0 1 .3.4l.2.3c.1.1 0 .2-.1.2l-.2-.3V17l-.3-.4a.5.5 0 0 0-.1-.2L90.3 15l-.3-.2a.9.9 0 0 1-.6-.5l-.5-.7-1.1-1-1.2-.8-.5-.3-.4-.2-.6-.2c-.2-.1-.2-.1-.3-.4a.7.7 0 0 0-.3-.4l-1-.5-.5-.4-1.3-.9h-.3l-1-.5a2 2 0 0 0-1-.4h-.5l-.5-.2-.3-.3-.5-.2h-.4l-2-1.5-.4-.2a3.5 3.5 0 0 0-1.6-.4h-.6l-1.1-.3h-.1c-.1.1-.5 0-.7-.1l-.2-.2c0-.1 0-.2-.1-.2a7.7 7.7 0 0 1-1.1-1l-2.6-.6h-.3l-1.3-.3-.7-.2h-3A4 4 0 0 0 59.9.7l-.7-.2h-.6a.7.7 0 0 1-.8-.1h-.1c-.2 0-.2.1-.2.1h-4.9c-.1.2 0 .3.3.3h-.4a.4.4 0 0 1-.4-.1h-.5c0 .1-.1.2 0 .2s.3.3.1.5h.4c.3 0 .3 0 .3-.2s-.1-.1.1-.2H54a2.9 2.9 0 0 1 1.4.2h.6l.9.3c.2.1.2.3 0 .3a1.4 1.4 0 0 1-.9 0h-3.2l-.5.2h-.8a1.6 1.6 0 0 0-1.3.2h-.4l-.4-.2h-1.7c-.1 0-.2-.1-.1-.2h.2a.1.1 0 0 0 0-.1h-.2c-.3.1-.5.2-.7 0-.4 0-.7 0-.9.3h-.6c0-.2 0-.2-.5-.2h-.5c-.1 0-.1-.1.1-.2h.7c-.6 0-.5-.3-.9-.3h-.6a1.1 1.1 0 0 0-.8.3h.3c-.3.1-.6.2-.6.4s-.2.2-.4.3a1.9 1.9 0 0 0-.9.2h-2l-.5.2h-.3c-.3-.1-.3-.1-.6.2l-.5.2c-.2 0-.2 0-.2-.1H37l-.2.2v.2c.3 0 .3 0 .1.2s-.2.1-.1.2h-.2a1.3 1.3 0 0 1-1 .3h-.2l.5-.2a1.3 1.3 0 0 0 .8-.4h-2.1l-.4.3h-.7l-.5.3-.3.2c-.2.1-.3 0-.4 0h-.5l-.7.3-.3.2c-.1.2-.3.4-.3.5s-.5.4-.4.6l-.2.2-.5.3h.1l.5-.3c.5-.4.7-.4 1-.3h1a1.5 1.5 0 0 1 .7-.3l-.8.5a1.4 1.4 0 0 0-.8.7l.6-.4h.1a1 1 0 0 1 .8-.4h.9a1.4 1.4 0 0 0-.8.6l-.6.3h-.2c-.3 0-.4 0-.5.2a1.5 1.5 0 0 1-.8.6 1.8 1.8 0 0 1-1 .4H29l-.2.3.2.7.2-.2c.2-.1.3-.2.1-.3s-.1-.1 0-.2l.2-.3h-.2c-.3.1-.3 0-.2-.2s.2-.2.1-.2h-.6l-.4.3c.3.2.3.5.1.8l-.4.3h.1c0 .6 0 .7-.2.8zm67.3 13.7zM72.9 4.8zM65 3.6zm-.2-1.9zm-2.3.8zm-2.6.5zm-1.3-1.9h.5c0-.1 0-.1.2-.1h.4l.7.7h-.8l-.5-.5h-.7c0-.1 0-.1.2-.1zm-.8-.3zm0-.4zm-4.2.2zm.3.8h.1l.9.2a1.7 1.7 0 0 1-1-.2zm-8.5 1.8h.1c.1 0 .1.1 0 .1h-.1zm-3.3 0zm-11 2.7zm1.4.2zm1.8 1.4zM36.5 5zm.2.2zm.3.5zm-.3-1.2l.3-.2h.4c.3-.1.6-.2.7-.4s.4-.2.6-.2l-.3.2-.4.4h-.3c-.2 0-.3 0-.3-.1h-.1l-.6.3v.1h-.9a1.6 1.6 0 0 1 1-.1zm-1.5 1.2h.4l-.4.2zm-2.1-.1c-.2 0-.2-.1 0-.3s.5-.3.8-.2h.4c.6-.1.5 0 .2.3h.5l-.9.3h-.2zm.5.7zm-.4 1.4zm-3.5 1.9l.4-.2h-.4zM76.8 97.9zM59.9 103.6zM24.4 96.9zM47.3 107.7zM89.4 92.6zM9 79zM99.6 76.6l-.3.2-.2.3c-.1.1-.1-.1-.2-.2s-.3-.4-.4-.8h-.1a2 2 0 0 0-.5.9.7.7 0 0 0 0 .5l.2-.3h.1v.2H98c-.1.2-.2.4-.3.4s-.4.2-.5.5l-.3.7h.3c.1 0 .1.1 0 .2l-.3.3-.4-.2c-.1.1-.1.2-.1.3v.4l-.2.4v.2s.2.4.5.2.3-.1.3.1v.5l.2-.2H97c-.1.1-.3.3-.3.2s-.4 0-.6.1v.7a1.4 1.4 0 0 1 0 .3v.5l-.2.2-1 1.1a2.6 2.6 0 0 1-.2.6A7.5 7.5 0 0 1 94 86a4.8 4.8 0 0 1-1.2 1.2l-.6.4-.7.6-.2.2-.3.2h-.1c0 .3-.2.5-.4.8l-.2.2-.5.3-.4.5v.2h-.3c-.2-.1-.3 0-.6.3l-.3.2-.4.3-.5.4a1.2 1.2 0 0 1-.9.6.3.3 0 0 1-.4-.2l-.4.2v.2h-.2v.1h-.2c-.3.3-.6.2-.9.5s0 .3 0 .4v.2h-.1c-.3 0-.6.4-.9.3h-.2a.7.7 0 0 1-.6.1c-.1 0-.4.2-.3.3a.9.9 0 0 1-.1.6l-.3.2h-.2v-.2a.6.6 0 0 0-.6.3v.4h-.9l-.5.2c-.2 0-.3 0-.4.3a.6.6 0 0 1-.5.4h-.3a.7.7 0 0 0-.5.3l-.2.3a3.1 3.1 0 0 0-1.5.6 2.6 2.6 0 0 1-1.1.6 3 3 0 0 0-.9.5l-.8.4c-.2.1-.3.1-.3.3v.4h-1.9l-.4.2a1 1 0 0 1-.7.4h-.4c-.2.1-.2.2-.3.3l-.2.4-.3-.2h-1l-.6.2h-.4l-1.6.4a2.9 2.9 0 0 0-1 .4H64l-2.8.4h-.1c0 .1.2.2 0 .3s-.1.3-.2.4h-.2c-.4-.1-.1-.3-.2-.5h-.6a1.1 1.1 0 0 1-.7.1h-1.6a5.1 5.1 0 0 0-1.7.3l-.7.3h-1a.7.7 0 0 1-.7.1h-1.7a1.3 1.3 0 0 0-.9.1h-.2l-.4-.2h-1.4v.2h-.2v-.2h-.4a6 6 0 0 1-2.1-.2h-2.4a.5.5 0 0 0-.5-.2l-1.3-.2-1.5-.2-1.5-.2h-.9l-.8-.3a1.1 1.1 0 0 0-.8-.1h-.4c-.2-.1-.2-.2-.4-.3h-1.1l-1.3-.7-.6-.3-.9-.3c-.3-.2-.1-.4-.3-.6h-.1l-1.3-1-.4-.2a2.7 2.7 0 0 1-.8-.4 1 1 0 0 1-.6-.5l-.3-.2h-.2l-.4-.5-.4-.3h-.4l-.4-.3a1.1 1.1 0 0 0-.7-.2c-.2-.2-.1-.3-.2-.4l-.2-.2a.9.9 0 0 0-.8-.3l-.4.2h-.2l-.2-.3c.1-.1.1-.2-.2-.4a1.3 1.3 0 0 1-.5-.5c-.1-.2-.2-.3-.6-.4H22a2.1 2.1 0 0 0-.8-.9l-.4-.4a5.7 5.7 0 0 0-1.2-1.1l-.8-.7-.6-.5a1.5 1.5 0 0 1-.7-.7l-.3-.2-.5-.2c-.1.1 0 .3.1.5a.5.5 0 0 1 .1.3h.2l.5.3h.7l.2.5a.1.1 0 0 1 0 .2l-.3.2-.4-.2a1 1 0 0 1-.3-.5l-.3-.2h-.9l-.4-.3a1.6 1.6 0 0 1-.3-.7h.1l.4.3h.2c.2 0 .5.1.6 0h.1l-.3-.4-.6-.5c-.1-.1-.2-.3-.1-.3h.2c.3.1.3.1.3-.2l.2.3-.3-.3H16l-.3-.2-.2.3c-.1.1-.3 0-.4-.2l-1-1.2v-.7a1.1 1.1 0 0 0-.3-.6c-.3-.2-.6-.5-.8-.4l-.2-.3v-.2h.4c-.3-.4 0-.6-.3-1l-.2-.3a1.3 1.3 0 0 0-.6-.6l-.3-.3v-.2c-.2.1-.3-.2-.4-.4s0-.2 0-.1.2.2.3 0l-.5-.6-.4-.3h-.2v-.2-.5h-.8c-.1.3.2.8 0 1l-.8-1-.2-.3c-.1-.3 0-.5.2-.5l.2.3.6-.4A1.3 1.3 0 0 1 9 79h-.4c0 .3-.1.3-.4.2h-.1a2.4 2.4 0 0 0-.1.8v.2h.3l.3.2a4.1 4.1 0 0 1 .7 1c-.2 0-.3 0-.5-.2l-.5-.4c-.1 0-.3 0-.3.2a.4.4 0 0 0 .1.3l.3.2a.5.5 0 0 1 .2.4v.2c0 .2 0 .2.2.5h.4c.1.1.1.1.1-.1l.4.3h.3l.2.2c.1.2.1.2.3.1s.3 0 .3.2.4.5.7.5v.6c0 .1-.1.2-.2.2-.2.1-.1.5 0 .8a1.2 1.2 0 0 0 .5.6 1.4 1.4 0 0 0 .1-.5c0-.2.1-.3.2-.4v-.3c0-.1.1-.2.2-.1l.3.2c.1.1-.1.1-.1.2l.3.2h-.1c-.1-.1-.1-.2-.2-.3s-.3.1-.4.1l.4.5.4.7c.1.2.1.4 0 .4s-.4-.1-.4.1a1.9 1.9 0 0 0 .4.7c.1.2.1.2 0 .2h-.3l.3.3.4.4h.7c0-.2.2-.2.2-.3v-.4c-.3-.3-.5-.3-.5 0-.1.1-.2.1-.3 0s-.2-.2-.2-.3l.6-.6c.2 0 .4.3.6.4a.8.8 0 0 1 .3.4v.2h-.5l.4.5a2.4 2.4 0 0 1 .4 1 .6.6 0 0 1-.1.3h.1v-.2a2 2 0 0 1 0-.3c-.2-.1-.5-.2-.6 0l.6 1h-.2l-.7-.3a.7.7 0 0 0 .1.6h1.3a1.2 1.2 0 0 0 .7.5c.1 0 .2 0 .1-.1s-.1-.2 0-.2l.5-.2h.2c.2.2.3.3.3.5a.7.7 0 0 0 .2.5l.4-.2c0-.2-.2-.4-.3-.5s-.2-.3-.1-.4h.2a1.8 1.8 0 0 1 .8.8 1.5 1.5 0 0 0 .5.7c.2.2.2.2.2.4s-.1.2.1.3l.8.9h.2a1.1 1.1 0 0 0-.3-.5l-.4-.4h.1l.7.6c.3.2.5 0 .8.1h.1l.3.3c0 .1-.1.1-.2 0s-.3-.1-.3 0a1 1 0 0 0 .1.3H21c-.3 0-.4.3-.5.5s.1.4.2.6.4 0 .3-.2 0-.2.2-.1h.3v.2c.2.2.1.3.1.5.4.2.4.2.6.6l.7.6.5.5a.2.2 0 0 1 0 .2h-.2c-.1 0 0 .2.2.3h.2c.3.1.3.1.3.3l.2.3h.4a.6.6 0 0 1 .7.4v.3a.9.9 0 0 1 .8.1h.3c.2.1.3 0 .2-.1v-.2h.4a1.4 1.4 0 0 0 .9.2h-.4l-.8-.2-.3-.2a1.9 1.9 0 0 0 1.1.8l.3.2v.4l1.2.8c-.1.1-.1.2.1.3l1.3.7c.2.2.4.1.6.2l.5.2.4.2a5.7 5.7 0 0 0 1 .5 2.1 2.1 0 0 1 1.1.5h.7a1.5 1.5 0 0 1 .9.5l.3.2a2.2 2.2 0 0 1 1 .4 2.8 2.8 0 0 0 1.2.4h.8l.3.3h.2l-.2-.2h.2v.2l.5.2 1.1.4h1.5l.5-.2a1.6 1.6 0 0 1 1.1 0 1 1 0 0 0 .8-.1h.4v.2h.8c0 .2.3.3.5.5h.9a2.8 2.8 0 0 0 1.1.4h.4c.2 0 .2-.1.2-.2h1.1c.2 0 .1.1.1.2s.2.3.5.3h.8a1.2 1.2 0 0 0 .9.2h1.1l.3-.2h.5a2.4 2.4 0 0 0 1.1.2h.2l.4-.4c.1-.1.3-.1.6 0l.5.3H59l.2-.2h.8l.6-.2h1.3a1 1 0 0 0 .8 0 4.1 4.1 0 0 1 1.3-.4 3.3 3.3 0 0 0 1.3-.5 1.2 1.2 0 0 1 .9-.1l.4-.2 1.7-.2c.3 0 .5-.2.5-.4s-.1-.2-.2-.2h1.9a14.6 14.6 0 0 0 1.4-.6h.4l.4-.4c.1-.1 0-.2.1-.3l.3-.2c.3-.1.3-.1.3.1s0 .2.2.1l1.4-.3h.2c.1-.2-.1-.2-.3-.2h-.2c-.2 0-.1-.1 0-.1l.2-.2a1.5 1.5 0 0 1 .8-.1h.4c-.1-.1-.4 0-.5-.1v-.2l.8-.5h.7c.3 0 .3.2 0 .4s0 .2.1.2h.5l.7-.4.4-.2c-.1 0-.1 0 0 0h.1l.4-.3c.1-.3.1-.6.5-.9h.2v-.2a1 1 0 0 0 .6-.5l.2-.2h.2c.5-.1.5-.1.8-.4l.4-.6a3.4 3.4 0 0 0 .2-.6c-.2-.1-.5-.1-.5-.3s.1-.2.3-.3l.5-.2c.2.1.5-.1.8-.3a1.2 1.2 0 0 0 .4-.5c.1-.1.1-.2 0-.3s-.2-.2 0-.3a1.2 1.2 0 0 0 .3-.6l.2-.8.2-.2h.2l.8-.7.3-.5c.1-.2.5-.4.6-.3l.2.3h.3c.4-.2.8-.2 1.2-.7a.6.6 0 0 1 .5-.3h.3c.3-.2.2 0 .3.1l.7.2.9-.9.5-.7a1.4 1.4 0 0 1 .4-.5 2.7 2.7 0 0 0 .8-.8 4.1 4.1 0 0 1 .7-1A6.3 6.3 0 0 1 94 87v-.6l.3-.2.4-.3a7.1 7.1 0 0 0 .7-1.2c.1-.1.1-.2 0-.3h-.2l.2-.3h.2a1.4 1.4 0 0 0 .8-1.1 2.4 2.4 0 0 1 .4-.7.7.7 0 0 1 .4-.4l.4-.3c.3-.2.3-.2.3-.6a.6.6 0 0 1 .1-.3l.2-.3c.2-.3.2-.4 0-.5h-.1a.4.4 0 0 1 0-.2l.2-.2h.7v-.2c-.1-.2-.1-.4.2-.8h.1c.1-.1.1-.2 0-.2s-.1 0-.1-.2v-.2l.3-.3c.1-.1.2-.3.2-.3zM17.4 89.8zM8.1 79.6zm1 2.9H9zm.7-1l-.2-.3v-.1h.1l.2.3a.3.3 0 0 1 0 .1zm.4-.1zm1.1 3.6zm.9-.6l-.3-.3c-.2-.3-.4-.4-.5-.3h-.2v-.2c0-.2-.1-.5.1-.5a.5.5 0 0 1 .4.2l.2.3.4.7zm3.3 4.5c.1.1.1.1 0 .1zm0 1.8zm.5 0zm5.9 3.7l-.5-.3.5.3zm.3 1.3h-.1a.7.7 0 0 1 0-.1h.1c.2.2.2.2.1.2zm.3-1.4h-.2l-.2-.2h.3l.2.2h-.1zm.8 2.8v-.2h.1v.2zm0-.5l-.3-.3-.2-.4a.4.4 0 0 1 .2.4l.4.2h-.1zm.4-.9l.2.2zm1.4.7zm.2.8H25l-.7-.5h.4l.4.3zm1.3 1.8h-.1v-.1s.4 0 .6.1h-.6zm3.2 3.3c-.3-.1-.4-.2-.4-.3h.1c.3.1.4.2.5.3zm.9.4h-.1c-.1-.1-.1-.1 0-.1h.1c0 .2 0 .2-.1.3zm5.7 2.2H36l-.6-.4.7.2h.1zm3.4.7zm13.1-1.5c-.1-.1 0-.1.1-.1h-.1zm2.2 2.9zm1.6-3zm1.9 3.4zm1.2-3.7zm.6 1.7zm.7-1a1.3 1.3 0 0 1-.9.1v-.3c0-.1 0-.1.2-.2h.3l.5.2c-.1.4-.2.4-.3.5zm1.7-1.4zm.9 1.8zm1.1 1.9zm1-3.4zm5.2-2.1c-.1-.1.1-.2.2-.3h.4l-.4.3zm.5.4c.1 0 .2 0 .2.1zm2.9-1h.1v.2h.1zm-.9 2.5c-.2.1-.3.2-.4.1h.3c-.2.1-.1.2-.2.3zm.7-.2H74v.1zm.7-1.3l-.5.4-1.1.3H73l.9-.5h.6zm.7.7l-.3.2h.3zm1.1-.8zm3.7-1.7h-.3a.5.5 0 0 1 .1-.5l.2-.2h.2a1.2 1.2 0 0 1 0 .3zM81 96h-.2v-.2h.3zm2.4-1.9zm-1.7 1.5v-.2h.3s0 .1-.1.2h-.2zm.4 3zm0-2.2h-.2v-.1l.6-.5a1 1 0 0 1-.7 1.1zm1-1.1a.7.7 0 0 1-.6.2v-.1l.3-.2.4-.2H83c0 .1-.1.2-.2.3zm.3.2c-.4.5-.4.5-.4.4zm.1.4H83v-.2h.1zm.5.4l-.4.2c-.1-.1 0-.2.1-.3h.3c-.2.4-.3.5-.3.6zm.5-2.1zm.2-1zm.7-.1zm2.4-.7h-.4v-.2h.2v.8zm5.1-5.1l-.4.2c-.1.1-.2 0-.2-.2v-.2l.4-.2v.3zm3.7-5.6c-.1 0-.1 0 0-.1zm1.9-3zm.3-1.5h-.3c0-.1.1-.3.2-.3h.3c-.4 1-.4.9-.5.9zM75.3 103.6zM47.3 107.7zM1.6 61.7zM1.2 61.7zM2 42.4zM1.8 49.1zM1.5 66.5zM3.1 71.3v-.2c.3.1.3.1.5-.1l.2.3c.1-.2.2-.2.5 0l.3.4h.1v-.2a3.9 3.9 0 0 1-.1-1.3V70c.2 0 .4 0 .6.5s.2.2.3.2h.1a1.3 1.3 0 0 1-.4-.9 1.3 1.3 0 0 0-.2-.7 3 3 0 0 1-.3-.7 1.1 1.1 0 0 1-.1-.6.6.6 0 0 0 0-.2.7.7 0 0 1 0-.6 1.2 1.2 0 0 0 0-.9 2 2 0 0 0-.3-.7l-.2-.3a9 9 0 0 1-.4-1.4v.3h-.4v-.2-.2s.3-.7.5-.8.1-.2 0-.2a8.6 8.6 0 0 1-.1-1.1v-.2h-.3a.3.3 0 0 1 0-.3v-1.6c0-.4-.1-.8-.1-1.2a12.4 12.4 0 0 0-.2-2 2 2 0 0 1 0-.9.7.7 0 0 0-.1-.5v-.9h-.2a.4.4 0 0 1 0-.4c.1-.1.3 0 .4-.4a1.8 1.8 0 0 0 0-.9 1.1 1.1 0 0 1 0-.5c0-.3.1-.6.1-1v-.2L3 50a.5.5 0 0 1 0-.2l.2-.2.4-1.2a.9.9 0 0 0-.1-.8l-.4-.5v.4a.3.3 0 0 1 0-.1v-.2l.6-.2v-.4-.5c0-.2 0-.5-.2-.6s-.1 0-.2-.1a.3.3 0 0 1 .1-.3v-.3a1.4 1.4 0 0 0 0-1l-.2-.5a.5.5 0 0 1 0-.3v-.7l.4-.2v-.2A1.3 1.3 0 0 1 4 41h-.2a.9.9 0 0 1 .1-.9H4a2.8 2.8 0 0 0 .6-1.2c0-.2.1-.3 0-.4s-.2-.2-.2-.4a.5.5 0 0 1 0-.2v-.3c.1-.1.2-.2.1-.4s-.1-.1-.2 0-.3.1-.4 0H4v-.3l-.4-.4-.3.4a1.8 1.8 0 0 0-.5 1l-.2.9.3-.2c.2-.3.2-.3.3-.3a.8.8 0 0 0 .7.3l.3-.4h-.1c0 .1 0 .2.1.3a.8.8 0 0 0-.1.5l.2.5a.2.2 0 0 1 0 .1v.2a.9.9 0 0 0-.8.4h-.4l-.2-.2-.6.3a1.1 1.1 0 0 0-.3.7c0 .2 0 .3.1.4s.2.1.2.4l-.3.6a.2.2 0 0 1 0 .2h-.1l-.2.3c-.2.2-.4.4-.5.3-.2.4-.3.8-.1 1.1a1.9 1.9 0 0 1 .1.5c0 .2.1.2.2 0h.2v.2l-.4.3-.6.9a.6.6 0 0 0 0 .1l.3-.2c.1-.1.1 0 0 .3H1c.1.1.2.1.2.2s0 .9.2 1.2a.7.7 0 0 1 0 .3l-.2 1.1H1v.2c0 .2-.1.4-.2.3l-.2-.2c-.1-.1-.2.1-.2.2V50.8s.1-.1.1-.3h.3a2.5 2.5 0 0 0 0 .9c.2-.1.3.1.4.3a.4.4 0 0 1 0 .4.7.7 0 0 0 .1.7v1.3h-.2c-.1-.3-.3-.6-.5-.5v-.5l.3-.7-.2-.7a.5.5 0 0 0 .2-.3l-.2.3-.4.4a.6.6 0 0 0 0 .8h.1v-.5a.3.3 0 0 1 0-.1c.1-.1.1 0 .1.1s-.1.4 0 .5a2.4 2.4 0 0 0-.1 1 1.9 1.9 0 0 0 0 .4v.4s-.1.6-.2.9a6 6 0 0 1 0 1.1L.4 58H1c.2.1.3-.1.5-.1a.5.5 0 0 1 .2-.4l-.3-.7c.1-.2.2-.4.3-.5s.1-.2.1-.3 0-.3.1-.2H2v-.5h.2a2 2 0 0 1 0 1h.1c-.1 0-.2.1-.2.2s-.1.6-.3.7c0 .2-.1.3-.2.4-.1.5-.1.5-.3.5h-.1c-.1 0-.2.2-.2.5v1c0 .2 0 .3-.1.2l-.2.2v.9a2.5 2.5 0 0 0 .1.6l.2.5c.1.2 0 .4-.1.4H.6c-.1 0-.2.2-.2.6h.3c.2.1.2.1.3 0l.3-.3.2.2L2 64a1.5 1.5 0 0 1 .1.8.7.7 0 0 0 .1.5l.2.5c.1.2.1.2.3 0a2 2 0 0 1 .2.8c0 .4-.2.5-.3.1l-.4-.7c-.1-.3-.2-.3-.3-.2s-.2.4-.3.5.3 0 .5.2a.6.6 0 0 1 .2.7h-.2c-.1-.1-.2 0-.1.1a4.1 4.1 0 0 0 .4 1h.1V68c-.1-.2 0-.3.1-.3s.1.2.1.3-.1.2-.1.4c-.1.2.2.7 0 .8s0 .1.1.2.2.5 0 .6-.2.2-.1.5v.5c0 .1-.1.1-.1 0v.3c.1.3.2.4.3.4h.3c.2.1.2 0 0-.4zm1.6-1.7zM3.3 37.5zM4 37zM1.2 56c-.1 0-.2-.1-.2.2a3.6 3.6 0 0 1-.1.8l-.3-.6a2.3 2.3 0 0 0 0-1.2h.1c0-.2.1-.2.2-.2l.3.3a.5.5 0 0 1 0 .3v.4zm.3-3.7c0-.1 0-.1.1 0zm.1-2.5zm.1 4.4c-.1 0 0-.1 0-.1v-.6H2a1.2 1.2 0 0 1-.2.6zm.3-5.3c-.1.3-.2.3-.3.5l-.2-.5c.2-.2.3-.2.5-.1s.1-.1.1 0zm-.3-.9a.6.6 0 0 1 0-.2l.2-.3v-.3h-.3a1 1 0 0 1 .1-.5h-.2v-.2.2a.3.3 0 0 1 0 .1c.1.1.3 0 .4-.1s.2-.1.3.1-.2.7.1.8zm.6-7.5a.3.3 0 0 1 0-.1zM1.2 61.7a.6.6 0 0 1 0 .2v-.2h.1a1.3 1.3 0 0 1 0-.6v.7zm.5-.9zm-.2-1.1a.3.3 0 0 1 .1-.3h.1c0 .1 0 .3-.1.3zm.3 2.7v-.5c0-.1 0-.1.1 0a.2.2 0 0 1 0 .1 1.5 1.5 0 0 1 .1.5zm.1-3.6v-.2zm.5 1.9c-.1-.2-.3-.4-.3-.7h.1c.2.2.2.3.1.7zm1.3 9.1zm.8-1.6a1.2 1.2 0 0 1 .1.6v.2H4l-.2-.3a1.1 1.1 0 0 1 0-.3c.3-.2.2-.6.1-1.1H4a3.8 3.8 0 0 0 .4.9zm-1.2-3c.2 0 .4.1.6 0s.1.1.2.3a.7.7 0 0 1 0 .2.9.9 0 0 0-.6.4v-.7a1.2 1.2 0 0 1-.3-.2zm.1 3.4h.1v.7h-.3a.8.8 0 0 1 .1-.7zm0-6.8V62.4a.7.7 0 0 1 0-.4v.3h-.3c-.1 0-.2-.2-.1-.3v-.2zm-.5-4.1h-.2zm.1-5.5zm.3-3.8c.1 0 .1 0 .1.1v.2c-.1 0-.1 0-.1-.1s-.2-.2-.2-.2zm.1-3.8zM2.6 48zm0-2.7zm.2-3.3v.3L3 42l-.3.3v.2c-.1.1-.1 0-.1-.1zm.1 19h-.1v-.9h.1a2 2 0 0 1 .1.8zm0 8.7H3v-.1zM2.9 38.4zM2.4 71c-.1 0-.1 0 0 .1V71zM1.6 61.7zM.8 51.5zM104.1 58.4V58h-.2a3.3 3.3 0 0 0 0 .4.7.7 0 0 1-.3.6h-.1a6.7 6.7 0 0 1-.2 1 1.4 1.4 0 0 0 0 .6.4.4 0 0 1-.1.4v.2a1.8 1.8 0 0 1-.2.9 4.6 4.6 0 0 0-.3 1 1 1 0 0 0 0 .3v.3a.5.5 0 0 1-.1.4.4.4 0 0 0-.2.4c0 .4 0 .7.2.7h.2v.2a.6.6 0 0 0-.3.4l-.2.4h-.1c-.3.1-.5.3-.5.9a8 8 0 0 0-.4 1.4 1.9 1.9 0 0 1-.3.6.6.6 0 0 0-.1.7.3.3 0 0 1-.1.3l-.3.3a6.4 6.4 0 0 0-.5 1.4 1.4 1.4 0 0 1-.3.7c-.3.3-.3.7-.5 1.1s0 .5.2.3h.3s0 .2-.1.3l-.3.4a.8.8 0 0 0-.2.5c0 .1 0 .2.1.1s.3.2.5.1h.8v-.2c0-.3.2-.6.3-.9h-.1c-.1.1-.2 0-.2-.2v-1.1a1.9 1.9 0 0 0 .1-1c.2 0 .2.1.2.2l-.3.8h.3c.1 0 0 .2 0 .3s0 .2.1.1l.2-.3a4.4 4.4 0 0 0 .2-.9c0-.3.2-.5.3-.7s-.1-.4.1-.8l-.4.2v-.2h.6l.7.2c.1 0 .2-.2.2-.4s.1-.5 0-.5-.1-.2-.1-.3 0-.5-.1-.5h-.6v.2a.8.8 0 0 1-.4.4h-.4c.2-.3.2-.3.1-.4v-.2h.5c.2-.4.3-.3.4-.3l.2-.2v-.2l-.2-.2c-.1-.1-.1-.3-.1-.5v.3h.1v.4h.2l.4-1c.1-.2.1-.3.2-.2s.2.1.3-.1l.4-.7a2.6 2.6 0 0 0 .1-.9v-.3a1.2 1.2 0 0 0 .1-.5 1 1 0 0 1 0-.4 1.3 1.3 0 0 0 .1-.8 1.7 1.7 0 0 1-.1-.5c.1-.4 0-.8 0-1.2l.2-1.3a5 5 0 0 0 .1-.7 1.6 1.6 0 0 0-.2-1c.3-.2.3-.5.1-.4zm-4.4 15.2zm.4.1h-.1v-.2h.1a.8.8 0 0 1 0 .2zm.5-2.2h-.1v-.2h.2s-.1.1-.1.2zm1.4-3.1h-.1a1.2 1.2 0 0 1 0-.2v-.4h.1zm.5-.9h-.1a.4.4 0 0 1 0-.1h.1zm.2-2.5zm.1 2.6h-.1a.2.2 0 0 1 .1-.2h.1zm0-3zm.4.4h-.1v-.2h.1v.1zm.3 1.1zm.6-1.3v.2zm0-1.5v-.1zM101.5 72zM27.2 8.9z"
         id="path21" />
      <path
         d="M15.8 17.8l.5-.2c.3-.1.5-.1.6.1v.3l.3-.2c.2-.2.3-.3.1-.4s-.3-.4-.7-.4v-.2a1.9 1.9 0 0 1 .6-.5h.5a2.7 2.7 0 0 0 .8-.7l.5-.6h.2c.1 0 .1.1 0 .1l-.3.3c-.1.1-.1.2 0 .2h.1c.1 0 .3-.1.4-.2l.2-.4.9-.5h.3v.2l-.3.4a.5.5 0 0 0-.1.3h.2l.8-.7.6-.8a1.6 1.6 0 0 0 1-.7.6.6 0 0 1 .5-.3h.5v.3h.3l.8-.5v-.2c0-.1 0-.2.1-.4h-.1c-.1-.1-.1-.2.1-.3l.8-.5.9-.9.3-.3a1.5 1.5 0 0 0 .6-.5c-.1-.1-.1-.2 0-.4s0-.2-.2-.2H27c0-.2-.1-.2-.3-.1l-1.2.8H25l-.4.2c-.1.1-.2.1-.2 0l.2-.4a.7.7 0 0 0 .2-.5H24c-.3.1-.7.4-.6.5s.3.5.2.9h.1c.2 0 .3.1.3.2s.2.1.3.2 0 .1-.1.2l-.3.2-.2.8-.2.3-.2.2-.9.2c-.1 0 0-.2.1-.4h-.2c-.2 0-.3 0-.4.2a1.8 1.8 0 0 1-.8.8c.2.2.2.2.6 0l-.6.4c-.2.2-.4.2-.4.1v-.3h.3v-.2c-.1.1-.1 0 0 0 0-.1.1-.1 0-.1h-.3c-.1 0 0-.1 0-.1a1.3 1.3 0 0 1 0-.2v-.3a1.4 1.4 0 0 0 .4-.7c.6-.5.6-.5.8-.8l-.5.3c-.7.3-1 .5-1.2 1a1.5 1.5 0 0 0 0 .3l-.3.2h-.5a.7.7 0 0 0-.5.4v.2a2.1 2.1 0 0 0-.4.9l-.3.3c-.2.1-.3.2-.3 0a1.2 1.2 0 0 1 0-.2l-.7.4h.1c0 .1-.2.3-.3.4l-.5.5c-.2.3-.4.4-.6.5l-.4.7v.2s.3.4.3.6zm10-7.2h.2a.4.4 0 0 1-.1.4l-.3.2h-.2v-.3zm-.6-.1h.1c.1.1 0 .1-.1.1h.2c-.2.1-.2 0-.2-.2zm-.8-1zm.4 3.1h-.1zm-.3-.7s0-.1.1-.2h.1c.1 0 0 0 0 .1h-.2l.2.2-.4.3zm-2.9 2h.1v.2h-.1c-.1 0-.1-.1 0-.2zm-1.7-.2h.4c.1 0 0 .1-.1.2h-.3v-.2zM18.3 15c.1-.1.2-.1.2 0h-.3zm-.7.9zm-1.1.4a2.9 2.9 0 0 1 .7-.8l.3-.2h.1v.2h-.1a1.8 1.8 0 0 0-.7.7h-.2l-.1.2zM21.3 13.4zM28 9.4zM27.1 10.3zM25.5 11.9zM8 79.3c-.1-.3 0-.4 0-.6s-.1-.4-.1-.6h.2l.6.6.3.3c.1-.1 0-.2 0-.3s.1-.4-.1-.7a1.1 1.1 0 0 1-.1-.5l-.2-.6-.2-.2h-.2c-.1 0-.2-.1-.3-.3s-.1-.4 0-.5.1-.2-.1-.5l-.6-.6v.5a.5.5 0 0 1 0 .5c-.1.1-.2.2-.3.2h-.1v.1c0-.1-.1-.2 0-.1v-.4l-.2-.2h-.2v.3a1.2 1.2 0 0 0 .2.7c.1.2 0 .3 0 .3l-.4-.2c-.2-.1-.3 0-.3.2v.5c-.1.1 0 .4.1.6s.3.5.4.4.3 0 .4.1L8 79.5h.1zM106.7 57.7a.6.6 0 0 1 0-.4l.2-.2a2.3 2.3 0 0 0 .2-1l-.2-.2-.2-.6c0-.1-.1-.1-.2 0s-.3.4-.5.2l-.4-.3c-.1-.2-.2 0-.3.1s-.1.1-.1-.1-.1-.5-.2-.4-.3.1-.4-.1-.1 0-.1.1a.8.8 0 0 0 0 .3h.1c.2 0 .3.3.4.5a1.9 1.9 0 0 1 0 1h.1c0-.1.1-.1.1.1h-.1a1.1 1.1 0 0 0 .2.5 5.7 5.7 0 0 1 .8 1.7c.1-.1.2 0 .3 0h.3c.1 0 .2-.2.3-.4a.9.9 0 0 0-.1-.6zm-.9-1.1c-.1 0-.2-.2-.1-.4v-.3c.1 0 .2.2.2.3s0 .4-.1.4zm.5 1.1h-.1l-.2-.3a.5.5 0 0 1 0-.1h.3v.4zM6.6 74.5h.1c.2.3.3.3.2 0s0-.4.1-.5l.2-.2A2.8 2.8 0 0 0 7 73c-.2-.2-.4-.3-.6-.3s-.1.1-.1.2v.3c.1.3 0 .4-.1.4h-.3l-.2-.7v-.2c-.1-.1-.1.1-.1.2s.2.4.1.5-.1.3 0 .6 0 .2 0 .3l.2.3.3.2h.1c.1.2.2-.1.3-.3zM3.7 73.4zM4.5 72.5a.8.8 0 0 0-.3-.5h-.3c0 .2-.1.2-.2.1h-.1c-.1-.1-.1-.1-.1.1s-.1.3-.2.4l-.2-.3c-.1-.1-.2 0-.1.1v.2l.2.2a1.3 1.3 0 0 0 .1.6h.3v-.3c0-.1.1-.2.1-.1l.3.5c.1.2.2.2.2 0s.1-.3.3-.3 0-.1 0-.2zM15.8 92.9l.2.2 1.4 1.3h.2l-.6-.6-.8-.8-.6-.6a5.7 5.7 0 0 0-1.4-1.4l.7 1c.2.5.6.6.9.9zM14.2 91zM1.6 64.6zM1.5 66.5zM1.1 65a.3.3 0 0 1 0-.3h.5a.9.9 0 0 0-.1-.5c-.1-.1-.2-.2-.3-.1H.9a.4.4 0 0 0-.1.4 8 8 0 0 0 .1 1.1l.2.4.2.3c.1 0 .2 0 .3.2a1.9 1.9 0 0 0-.1-.5c-.2-.3-.3-.8-.4-1zM106.1 61.3zM105.6 62.4h.1l.2-.4.5-.6h-.3V61a.6.6 0 0 1 .1-.4h-.3a3.2 3.2 0 0 0-.2.6 5.4 5.4 0 0 1-.1 1.2z"
         id="path23" />
      <path
         d="M106.4 61.5v-.6h-.1c-.1.3.1.4.1.6zM106.1 61.4zM105.8 60.8zM5.8 31.6a.5.5 0 0 0 .3-.3 2.6 2.6 0 0 1 .4-.9V30v-.1a5.5 5.5 0 0 0-.8 1.6zM22.6 14.4h.3a.8.8 0 0 0 .5-.5v-.3c0-.1 0-.1-.2-.1l-.3.2-.2.4c0 .2-.1.3-.1.3zM21 15.5l-.2.2v.2c0 .2.2.2.4.1a.9.9 0 0 0 .4-.5.5.5 0 0 0 0-.2h-.1zM90.6 92.8l-.4.4c-.1.1-.1.2 0 .2h.3l.3-.3.2-.2c.2-.2.3-.3.3-.5zM4.9 32.9h-.1a1.1 1.1 0 0 0-.5.8 4.7 4.7 0 0 0-.1.6 1.5 1.5 0 0 0 .5-.8 3.2 3.2 0 0 0 .2-.6zM4.9 32.9zM105.8 59.3a1.1 1.1 0 0 0-.1.5c0 .3.1.6.1.9a1.9 1.9 0 0 0 .1-.8 2 2 0 0 1 0-.4c.2-.1.1-.4.2-.6s-.2.1-.3.4zM106.1 59zM28.7 6.9l.5-.3c.1-.1.2-.2.1-.3h-.4l-.7.6a.5.5 0 0 0 .5 0zM22.1 96.8c-.4-.1-.4.1-.5.2v.2h.2c0-.1 0-.1.1-.1s.4 0 .2-.4H22zM4.1 42.4c-.1-.1-.2 0-.4.3s.4.2.4.5v.2a1.2 1.2 0 0 1 .1-.5.5.5 0 0 0-.1-.5zM53.1 2.4h.5l-.2-.2h-.3zM5.5 78h-.3l.3.6h.3a.8.8 0 0 0-.3-.6zM26 11.8l.5-.3v-.2h-.1a2 2 0 0 0-.9.6.6.6 0 0 0 .5-.1zM25.5 11.9zM24.9 13h.4l.6-.6-1 .6c0-.1 0 0 0 0zM103.2 67.8c-.1 0-.1.2-.1.3v.3l.4-.5h-.3zM9 25.8l.4-.5V25l-.5.4v.5c0 .1 0 0 .1-.1zM8.8 25.4zM4 74.8a1.7 1.7 0 0 0 0 .4 1.5 1.5 0 0 0 .1.4.3.3 0 0 1 0-.2l.2-.2s0-.3-.1-.4zM11.3 21.8v-.6h-.1c-.2.3-.2.7-.4 1.1l.2-.3zM22.3 11.4l.7-.5h-.2l-.6.4v.2zM25.9 8.8l.8-.7h-.1a2.6 2.6 0 0 0-.8.7zM45.6 1.6h-.4l-.2.2v.1h.6zM47.1 1.5h.3l-.5-.2h-.5v.1zM51.9.2h-.2l.3.3h.5l-.1-.2zM52.6.5zM1.7 65.3h.1v-.4c0-.1 0-.2-.1-.3h-.1v.4c0 .1.1.3.1.3zM3.7 73.4zM3.6 74.2v.2c.1 0 .2-.1.2-.2v-.6a1.2 1.2 0 0 1-.2.6zM21.9 15.4v.1l.4-.2v-.1zM27.5 11l.5-.5a1.7 1.7 0 0 0-.8.5zM19.9 16c.1-.1 0-.2-.1-.2h-.2c-.1.2-.1.3-.3.5h.3zM4.9 37.1h.2a.7.7 0 0 0 0-.2h-.2zM85.1 95.1h.3c0-.1.1-.1 0-.2s-.5 0-.6-.2v.3zM84.9 94.6zM18.2 16.5v.2c0 .1.2.1.3 0v-.2h-.4zM14.4 18.2v-.5H14c.1.4.2.6.4.5zM91.9 91.9v.3c.2 0 .4-.3.5-.5-.2-.2-.4 0-.5.2zM9.4 78.7h-.2v.2l.2.2.3.2-.3-.4zM26.9 11.7zM4.3 36.7a.4.4 0 0 0 .1-.3h-.1l-.3.3v.3zM49.4 2.1h-.2l-.6.2h.7c.1-.1.2-.2.1-.2zM50.2 1.2a.1.1 0 0 0 0-.1h-.4c.2.2.3.2.4.1zM49.6 1.1zM13.1 19.3h-.2l-.3.4.3-.3zM13.1 18.6l-.2.2zM4.6 39.7h.1c0-.1.1-.3 0-.3h-.2a1.3 1.3 0 0 0 .1.3z"
         id="path25" />
      <path
         d="M27.2 10.6H27v.2c0 .1.1.2.3.2v-.4h-.1zM27.2 11.1zM101.5 72zM101.8 72.1v-.2-.2s-.2.1-.3.3.2.1.3.1zM101.2 73.8a.3.3 0 0 0 0 .2h.2a.2.2 0 0 0 0-.3zM22.3 12h.1l.3-.3h-.2c-.2.1-.3.3-.2.3zM7.4 28.5l-.2.2v.2l.2-.2zM9.5 24.8zM9.7 24.4h-.1v.3l.2-.3h-.1zM.8 45.1h.1a.8.8 0 0 0 0-.1H.8zM28.6 7.1l-.2.2h.2zM49.5 1.1V.9h-.2c-.1 0-.2.1-.1.1zM49.5 1.1zM48.2 1zM7.3 79.3h.2v-.2zM4.1 64.1v-.2h-.3l.2.3zM5.7 70.9zM5.8 70.6s.1.2 0 0zM19.5 16.8h.1l.2-.2a.2.2 0 0 0 0-.2zM95.4 83.2zM95.6 82.7l-.2.2v.2l.3-.4zM11 84.6c-.1 0 0 .1.1.2l.2.3-.2-.3zM4.9 75.2zM99 80.1v-.2a.7.7 0 0 0 0-.2zM11.3 86.4h-.1v.2h.1v-.2zM20.9 96.1h.1l-.2-.2h-.2zM46.8 2.3h.1c.1-.1 0-.1 0-.1zM46.8 2.4zM51.1 1.7zM11.3 21.8zM11.7 21.6v-.2l-.5.3h.2zM1.4 66.6zM1.6 67.1v.2zM4.1 34.3c-.1 0-.1-.1-.2 0zM4.2 34.4zM.5 48c0-.1 0-.2-.1-.1v.2zM0 55.5h.1v-.3s-.1.2-.1.3zM1.2 66.7h.2v.2zM1.4 66.5zM83 94.1c-.1 0-.1 0 0 0zM4.2 64.8zM20.2 16.6zM94.9 83.4zM5.2 71.3v-.1.1zM4.8 71.4zM6.2 74.9l.3.6zM6.4 75.5zM4.8 72.6v.1-.1zM6.3 76.2zM5.5 75.8zM19.5 94.5s0-.1 0 0zM98.5 80.3c.1-.1.1-.1 0-.1zM4.8 34.4v-.1zM5.7 76.8h.1v-.2zM5.6 76.7zM20 95.4h.1l-.1-.1v.1zM89.3 92.8l.1-.1-.1.1zM89.4 92.6v.1-.1zM5.2 32.7l-.3.2.3-.2zM5.3 32.4l-.2.2h.1zM1.9 42.6zM1.6 42.6zM1.9 42.4c-.1 0-.2.1-.2.2h.2v-.3zM2 42.3zM9.2 84zM25.9 9.4c.1-.1.1-.1 0-.1zM5.5 31.4zM5.5 31.5zM1.4 42.7c.1 0 .1 0 .2-.2h-.1zM1.6 42.6zM8.8 83.9zM10.7 86.6h.1s0-.1-.1 0zM10.8 86.7zM15.4 16.9zM15.3 17.1h-.1c-.1.1-.1.1 0 .1zM11.9 20.9zM.2 61.4h.1c-.1-.1-.1-.1-.1 0zM4.5 76.9v.2a.3.3 0 0 0 0-.1zM80.6 101zM80.3 100.9zM17.7 14.1zM93.9 89.8l.1-.2-.1.1v.1zM106.2 63.6v.1a.5.5 0 0 0 0-.1zM77.9 6.4l-.1.1h.1v-.1zM27.7 6.7zM16.7 14.8c.1-.1.1-.1 0-.1zM26.4 7.4v.1l.1-.1h-.1zM59.9 103.6h.1-.1zM84.7 93l-.2.1h.2V93zM3.5 60.8zM4.1 43.5zM5.7 71.6c-.1-.1-.1-.1-.1 0zM95.6 81.5h.1zM9.3 79.8zM9.3 79.8zM19.4 16.4zM3.9 38.5zM102.8 69.4v-.1.1zM22.7 12.3zM21.6 96zM21.6 96zM3.9 71.9zM1 49.3zM5.3 32.8zM5.2 32.9v-.1zM105.5 61c0 .1 0 .1.1 0zM2.9 38.4zM2.9 38.6c0-.1-.1 0 0 0zM20.8 12.7zM11.2 86.7h.2-.2zM11.2 86.7zM14 90.4zM14.4 18.3z"
         id="path27" />
      <path
         d="M11.7 21.1c-.1.2 0 .2 0 .4zM.2 58.1zM1.2 43.3zM105.7 63.2v-.1.1zM106.1 60.7c-.1 0-.1 0 0 0zM15.4 17zM1.8 69.5v.4-.4zM4.1 75.8zM4.1 75.8zM6.3 80.4c.1 0 .1 0 0-.1zM56.6 107.9zM57 108.2h.1-.1zM75.3 103.6zM91.7 92.2zM91.8 92.1zM80.6 101zM80.7 100.9zM.7 55.1zM.7 55.2z"
         id="path29" />
    </g>
  </g>
</svg>
